# xmcd CD database file
#
# Track frame offsets:
#	150
#	18469
#	35797
#	53585
#	73725
#	91545
#	112476
#	130905
#	150301
#	170927
#	187769
#	208019
#	228573
#	249008
#	271830
#	292863
#	312519
#
# Disc length: 4429 seconds
#
# Revision: 4
# Processed by: cddbd v1.4PL0 Copyright (c) Steve Scherf et al.
# Submitted via: CDex 1.40Release
#
DISCID=ea114b11
DTITLE=이미연 - 연가
DYEAR=1900
DGENRE=
TTITLE0=김민우_사랑일뿐야
TTITLE1=김민우_입영열차안에서
TTITLE2=변진섭_홀로된다는 것
TTITLE3=윤상_이별의 그늘
TTITLE4=윤상_가려진 시간 사이로
TTITLE5=이신_애상
TTITLE6=이상우_비창
TTITLE7=전유나_너를 사랑하고도
TTITLE8=나미_슬픈인연
TTITLE9=신성우_서시
TTITLE10=김돈규_나만의 슬픔
TTITLE11=부활_사랑할수록
TTITLE12=이지훈_왜 하늘은
TTITLE13=솔리드_이밤의 끝을 잡고
TTITLE14=박상민_멀어져간 사람아
TTITLE15=조장혁_change
TTITLE16=김태영_혼자만의 사랑
EXTD=
EXTT0=
EXTT1=
EXTT2=
EXTT3=
EXTT4=
EXTT5=
EXTT6=
EXTT7=
EXTT8=
EXTT9=
EXTT10=
EXTT11=
EXTT12=
EXTT13=
EXTT14=
EXTT15=
EXTT16=
PLAYORDER=
